<svg width="209" height="84" viewBox="0 0 209 84" fill="none" xmlns="http://www.w3.org/2000/svg">
<path d="M44.5761 26.1548C43.4754 27.2048 42.1211 28.504 40.7612 29.8228C40.5355 30.0412 40.176 30.0552 39.9419 29.8452C38.7046 28.7448 37.1497 27.9944 35.4303 27.7536C35.1293 27.7116 34.9092 27.4512 34.9092 27.146V21.7028C34.9092 21.4228 35.1377 21.1932 35.4164 21.2016C35.4219 21.2016 35.4247 21.2016 35.4275 21.2016C39.1115 21.392 42.043 22.9012 44.5761 25.2672C44.8325 25.5052 44.8325 25.914 44.5761 26.1576V26.1548Z" fill="url(#paint0_linear_7314_4012)"/>
<path d="M44.5871 46.8944L40.6886 43.0556C40.4684 42.8372 40.1173 42.8204 39.8777 43.0164C38.3533 44.282 36.386 45.0268 34.2458 44.9904C32.2701 44.9568 30.4531 44.2428 29.0097 43.0724C27.0228 41.4624 25.7548 38.99 25.7771 36.2516C25.7771 35.9352 25.7994 35.6216 25.8356 35.3136C26.1004 33.0456 27.2345 31.0464 28.8926 29.6632C28.9846 29.5848 29.0793 29.512 29.1741 29.4364C30.2859 28.5852 31.866 28 33.3067 27.7732C33.6076 27.7256 33.8306 27.4708 33.8306 27.1684V21.8624C33.8306 21.504 33.524 21.2184 33.1674 21.252C31.0272 21.4592 28.7561 22.1172 26.9698 23.1252C26.7162 23.268 26.4626 23.4192 26.2174 23.5788C25.5625 23.9988 24.9411 24.4692 24.3615 24.9816C22.6365 26.5076 21.2571 28.42 20.3626 30.5844C19.5796 32.4688 19.1671 34.5436 19.2034 36.722C19.3483 44.9232 26.0168 51.5956 34.1789 51.7076C38.175 51.7636 41.8227 50.2684 44.5648 47.782C44.824 47.5468 44.8296 47.138 44.5788 46.8944H44.5871Z" fill="white"/>
<path d="M52.8798 48.6753C51.2831 47.7765 50.0291 46.4997 49.1206 44.8421C48.2122 43.1845 47.7607 41.2665 47.7607 39.0825C47.7607 36.8985 48.2261 35.0169 49.1596 33.3621C50.0932 31.7045 51.3639 30.4333 52.9746 29.5485C54.5853 28.6609 56.3883 28.2185 58.3807 28.2185C60.3732 28.2185 62.1762 28.6609 63.7869 29.5485C65.3976 30.4361 66.6683 31.6989 67.6018 33.3425C68.5353 34.9861 69.0007 36.9013 69.0007 39.0825C69.0007 41.2637 68.5214 43.1845 67.5628 44.8421C66.6042 46.4997 65.3056 47.7765 63.6698 48.6753C62.034 49.5741 60.2199 50.0249 58.2247 50.0249C56.2294 50.0249 54.4738 49.5741 52.8743 48.6753H52.8798ZM61.7582 46.0545C62.8561 45.4637 63.7451 44.5789 64.4222 43.3945C65.0994 42.2129 65.4394 40.7737 65.4394 39.0797C65.4394 37.3857 65.1077 35.9465 64.4417 34.7649C63.7757 33.5833 62.9091 32.7041 61.8334 32.1245C60.7605 31.5477 59.5957 31.2565 58.3445 31.2565C57.0933 31.2565 55.8978 31.5449 54.8361 32.1245C53.7744 32.7041 52.9244 33.5833 52.2863 34.7649C51.6481 35.9465 51.3277 37.3857 51.3277 39.0797C51.3277 40.7737 51.6398 42.2521 52.2668 43.4337C52.8938 44.6153 53.7298 45.4945 54.7776 46.0741C55.8254 46.6509 56.9762 46.9421 58.2275 46.9421C59.4787 46.9421 60.6574 46.6481 61.7554 46.0545H61.7582Z" fill="white"/>
<path d="M90.0571 30.5089C91.6427 32.0629 92.4341 34.3029 92.4341 37.2317V49.6777H88.9842V37.7329C88.9842 35.6273 88.4603 34.0145 87.4126 32.8973C86.3648 31.7801 84.9324 31.2201 83.1183 31.2201C81.3042 31.2201 79.8133 31.7997 78.7265 32.9533C77.6397 34.1097 77.0963 35.7925 77.0963 38.0017V49.6749H73.6074V28.5629H77.0963V31.5673C77.7874 30.4893 78.7265 29.6549 79.9136 29.0641C81.1035 28.4733 82.4105 28.1765 83.8428 28.1765C86.3982 28.1765 88.4687 28.9521 90.0543 30.5061L90.0571 30.5089Z" fill="white"/>
<path d="M105.972 46.441L112.49 28.563H116.21L107.967 49.675H103.901L95.6582 28.563H99.4146L105.972 46.441Z" fill="white"/>
<path d="M138.718 40.4322H121.922C122.051 42.5126 122.758 44.1366 124.051 45.307C125.342 46.4774 126.908 47.0598 128.75 47.0598C130.257 47.0598 131.517 46.707 132.526 46.0014C133.534 45.2958 134.245 44.3522 134.655 43.1706H138.414C137.851 45.2006 136.725 46.8498 135.039 48.121C133.353 49.3922 131.255 50.0278 128.75 50.0278C126.754 50.0278 124.974 49.577 123.399 48.6782C121.828 47.7794 120.593 46.5026 119.699 44.845C118.804 43.1874 118.355 41.2694 118.355 39.0854C118.355 36.9014 118.79 34.989 119.66 33.3454C120.529 31.7018 121.75 30.4362 123.321 29.5514C124.893 28.6638 126.702 28.2214 128.747 28.2214C130.792 28.2214 132.506 28.6582 134.039 29.5318C135.571 30.4054 136.753 31.6066 137.586 33.1354C138.417 34.6642 138.832 36.3918 138.832 38.3182C138.832 38.9874 138.793 39.693 138.718 40.4378V40.4322ZM134.345 34.1322C133.757 33.169 132.958 32.4354 131.949 31.9342C130.94 31.433 129.82 31.1838 128.594 31.1838C126.83 31.1838 125.328 31.7494 124.088 32.8806C122.848 34.0118 122.137 35.577 121.959 37.5818H135.226C135.226 36.2462 134.931 35.0954 134.343 34.1322H134.345Z" fill="white"/>
<path d="M149.549 29.1816C150.686 28.5124 152.074 28.1792 153.71 28.1792V31.7996H152.79C148.878 31.7996 146.924 33.9332 146.924 38.1948V49.6748H143.436V28.5628H146.924V31.9928C147.538 30.786 148.413 29.848 149.552 29.1788L149.549 29.1816Z" fill="white"/>
<path d="M161.992 31.4525V43.8985C161.992 44.9261 162.209 45.6513 162.644 46.0769C163.079 46.4997 163.831 46.7125 164.907 46.7125H167.476V49.6777H164.333C162.39 49.6777 160.933 49.2297 159.96 48.3281C158.988 47.4293 158.503 45.9537 158.503 43.8957V31.4497H155.78V28.5601H158.503V23.2429H161.992V28.5601H167.476V31.4497H161.992V31.4525Z" fill="white"/>
<path d="M189.792 28.563L177.138 59.6178H173.534L177.675 49.4454L169.201 28.563H173.075L179.671 45.6682L186.189 28.563H189.792Z" fill="white"/>
<path d="M138.974 59.5057C138.829 59.3601 138.757 59.1837 138.757 58.9709C138.757 58.7581 138.829 58.5845 138.974 58.4389C139.119 58.2933 139.295 58.2205 139.506 58.2205C139.718 58.2205 139.877 58.2933 140.019 58.4389C140.161 58.5845 140.231 58.7609 140.231 58.9709C140.231 59.1809 140.161 59.3601 140.019 59.5057C139.877 59.6513 139.707 59.7241 139.506 59.7241C139.306 59.7241 139.119 59.6513 138.974 59.5057Z" fill="white"/>
<path d="M142.667 59.4973C142.265 59.3237 141.948 59.0801 141.714 58.7693C141.479 58.4585 141.351 58.1001 141.326 57.6969H142.46C142.494 58.0273 142.647 58.2989 142.926 58.5089C143.202 58.7189 143.567 58.8253 144.018 58.8253C144.436 58.8253 144.765 58.7329 145.007 58.5453C145.25 58.3605 145.37 58.1253 145.37 57.8425C145.37 57.5597 145.241 57.3357 144.982 57.1929C144.723 57.0501 144.327 56.9129 143.787 56.7757C143.296 56.6469 142.895 56.5153 142.586 56.3809C142.276 56.2465 142.009 56.0505 141.789 55.7873C141.569 55.5241 141.457 55.1797 141.457 54.7513C141.457 54.4125 141.557 54.1017 141.758 53.8189C141.959 53.5361 142.246 53.3121 142.614 53.1469C142.984 52.9817 143.405 52.8977 143.882 52.8977C144.614 52.8977 145.205 53.0853 145.657 53.4549C146.108 53.8273 146.348 54.3369 146.381 54.9837H145.283C145.258 54.6365 145.119 54.3565 144.868 54.1465C144.614 53.9365 144.274 53.8301 143.848 53.8301C143.455 53.8301 143.14 53.9141 142.906 54.0849C142.672 54.2557 142.558 54.4769 142.558 54.7513C142.558 54.9697 142.628 55.1489 142.77 55.2917C142.909 55.4345 143.087 55.5465 143.299 55.6305C143.514 55.7145 143.809 55.8097 144.185 55.9161C144.659 56.0449 145.046 56.1737 145.345 56.2969C145.643 56.4229 145.896 56.6105 146.111 56.8597C146.323 57.1089 146.434 57.4365 146.442 57.8425C146.442 58.2065 146.342 58.5341 146.142 58.8253C145.941 59.1165 145.657 59.3433 145.292 59.5113C144.927 59.6765 144.506 59.7605 144.029 59.7605C143.522 59.7605 143.068 59.6737 142.667 59.5001V59.4973Z" fill="white"/>
<path d="M152.623 53.2058C153.025 53.4214 153.342 53.7406 153.571 54.169C153.799 54.5974 153.914 55.1182 153.914 55.7342V59.6514H152.827V55.8938C152.827 55.2302 152.662 54.7234 152.331 54.3706C152.002 54.0206 151.55 53.8442 150.979 53.8442C150.408 53.8442 149.94 54.0262 149.597 54.3902C149.254 54.7542 149.084 55.2834 149.084 55.9778V59.6514H147.986V50.6802H149.084V53.9534C149.302 53.6146 149.6 53.3514 149.982 53.1666C150.363 52.9818 150.793 52.8866 151.266 52.8866C151.765 52.8866 152.216 52.993 152.618 53.2086L152.623 53.2058Z" fill="white"/>
<path d="M156.912 59.3349C156.411 59.0521 156.015 58.6489 155.731 58.1281C155.447 57.6073 155.302 57.0025 155.302 56.3165C155.302 55.6305 155.449 55.0369 155.742 54.5161C156.035 53.9953 156.436 53.5949 156.943 53.3149C157.45 53.0377 158.016 52.8977 158.646 52.8977C159.276 52.8977 159.841 53.0377 160.346 53.3149C160.853 53.5949 161.254 53.9925 161.547 54.5105C161.839 55.0285 161.987 55.6305 161.987 56.3165C161.987 57.0025 161.836 57.6073 161.533 58.1281C161.232 58.6489 160.822 59.0521 160.309 59.3349C159.794 59.6177 159.223 59.7577 158.596 59.7577C157.969 59.7577 157.414 59.6177 156.912 59.3349ZM159.707 58.5117C160.053 58.3269 160.332 58.0469 160.546 57.6745C160.758 57.3021 160.867 56.8513 160.867 56.3165C160.867 55.7817 160.761 55.3309 160.552 54.9585C160.343 54.5861 160.07 54.3089 159.73 54.1269C159.393 53.9449 159.025 53.8553 158.632 53.8553C158.239 53.8553 157.863 53.9477 157.528 54.1269C157.194 54.3089 156.926 54.5861 156.726 54.9585C156.525 55.3309 156.425 55.7845 156.425 56.3165C156.425 56.8485 156.522 57.3161 156.72 57.6857C156.918 58.0581 157.18 58.3353 157.512 58.5173C157.84 58.6993 158.203 58.7889 158.598 58.7889C158.994 58.7889 159.362 58.6965 159.707 58.5117Z" fill="white"/>
<path d="M165.503 53.2786C165.932 53.0238 166.434 52.895 167.005 52.895C167.576 52.895 168.125 53.0378 168.605 53.3206C169.084 53.6034 169.46 54.001 169.733 54.5134C170.006 55.0258 170.143 55.6222 170.143 56.3026C170.143 56.983 170.006 57.571 169.733 58.0974C169.46 58.6238 169.084 59.0298 168.605 59.321C168.125 59.6122 167.593 59.7578 167.005 59.7578C166.417 59.7578 165.946 59.6318 165.514 59.377C165.085 59.1222 164.756 58.8058 164.531 58.425V62.8014H163.433V53.0042H164.531V54.2278C164.748 53.847 165.071 53.5306 165.5 53.2758L165.503 53.2786ZM168.719 54.995C168.518 54.6226 168.245 54.3398 167.905 54.1466C167.562 53.9534 167.186 53.8554 166.777 53.8554C166.367 53.8554 166.002 53.9534 165.659 54.1522C165.316 54.351 165.043 54.6366 164.84 55.0118C164.634 55.387 164.533 55.821 164.533 56.3166C164.533 56.8122 164.636 57.2574 164.84 57.6326C165.043 58.0078 165.319 58.2962 165.659 58.4922C166.002 58.691 166.373 58.789 166.777 58.789C167.181 58.789 167.562 58.691 167.905 58.4922C168.248 58.2934 168.518 58.0078 168.719 57.6326C168.92 57.2574 169.02 56.815 169.02 56.3054C169.02 55.7958 168.92 55.3674 168.719 54.995Z" fill="white"/>
<defs>
<linearGradient id="paint0_linear_7314_4012" x1="34.9064" y1="25.5948" x2="44.7684" y2="25.5948" gradientUnits="userSpaceOnUse">
<stop stop-color="#FFD700"/>
<stop offset="1" stop-color="#D5B519"/>
</linearGradient>
</defs>
</svg>
