<svg width="76" height="49" viewBox="0 0 76 49" fill="none" xmlns="http://www.w3.org/2000/svg">
<g opacity="0.8">
<g style="mix-blend-mode:multiply" opacity="0.69">
<path d="M46.9265 8.39282C46.6469 8.1139 46.2606 7.94141 45.834 7.94141H29.3547C28.5013 7.94141 27.8088 8.63139 27.8088 9.48358V34.6982C27.8088 35.5495 28.5005 36.2404 29.3547 36.2404H45.834C46.6873 36.2404 47.3798 35.5504 47.3798 34.6982V9.48358C47.3798 9.05792 47.2069 8.67259 46.9273 8.39367L46.9265 8.39282Z" fill="#5A5C65"/>
</g>
<path d="M55.5296 23.175V14.8315C55.5296 13.2093 54.1506 11.8945 52.4491 11.8945C50.7476 11.8945 49.3686 13.2093 49.3686 14.8315V39.1748C49.3686 40.3197 48.3949 41.2482 47.194 41.2482H39.2533C38.0524 41.2482 37.0786 40.3197 37.0786 39.1748V30.2399" stroke="#242B5B" stroke-width="2.69758" stroke-miterlimit="10"/>
<path d="M37.3356 35.8154H36.8212C36.6754 35.8154 36.5571 35.9282 36.5571 36.0672V37.6674C36.5571 37.8064 36.6754 37.9191 36.8212 37.9191H37.3356C37.4815 37.9191 37.5997 37.8064 37.5997 37.6674V36.0672C37.5997 35.9282 37.4815 35.8154 37.3356 35.8154Z" fill="url(#paint0_linear_11055_38059)"/>
<g style="mix-blend-mode:multiply" opacity="0.47">
<path d="M37.3356 35.8154H36.97C37.1163 35.8154 37.2341 35.9278 37.2341 36.0672V36.4904H36.5571V36.8078H37.2341V37.6674C37.2341 37.8068 37.1163 37.9191 36.97 37.9191H37.3356C37.4819 37.9191 37.5997 37.8068 37.5997 37.6674V36.0672C37.5997 35.9278 37.4819 35.8154 37.3356 35.8154Z" fill="#3949AB"/>
</g>
<path d="M38.0687 33.6328H36.0876C35.8244 33.6328 35.6111 33.8362 35.6111 34.0872V36.1163C35.6111 36.3672 35.8244 36.5706 36.0876 36.5706H38.0687C38.3319 36.5706 38.5453 36.3672 38.5453 36.1163V34.0872C38.5453 33.8362 38.3319 33.6328 38.0687 33.6328Z" fill="url(#paint1_linear_11055_38059)"/>
<g style="mix-blend-mode:multiply" opacity="0.47">
<path d="M38.0687 33.6328H37.4915C37.7547 33.6328 37.968 33.8362 37.968 34.0872V36.1154C37.968 36.3664 37.7547 36.5698 37.4915 36.5698H38.0687C38.3319 36.5698 38.5452 36.3664 38.5452 36.1154V34.0872C38.5452 33.8362 38.3319 33.6328 38.0687 33.6328Z" fill="#3949AB"/>
</g>
<path d="M56.7306 25.5938H54.3271V28.051H56.7306V25.5938Z" fill="url(#paint2_linear_11055_38059)"/>
<g style="mix-blend-mode:multiply" opacity="0.47">
<path d="M56.7305 25.5938H56.2161V28.051H56.7305V25.5938Z" fill="#5A5C65"/>
</g>
<path d="M55.7866 22.0205H55.2721C55.1263 22.0205 55.0081 22.1332 55.0081 22.2723V23.8724C55.0081 24.0115 55.1263 24.1242 55.2721 24.1242H55.7866C55.9324 24.1242 56.0506 24.0115 56.0506 23.8724V22.2723C56.0506 22.1332 55.9324 22.0205 55.7866 22.0205Z" fill="url(#paint3_linear_11055_38059)"/>
<g style="mix-blend-mode:multiply" opacity="0.47">
<path d="M55.7866 24.1242H55.421C55.5672 24.1242 55.6851 24.0119 55.6851 23.8724V23.4492H55.0081V23.1318H55.6851V22.2723C55.6851 22.1329 55.5672 22.0205 55.421 22.0205H55.7866C55.9328 22.0205 56.0506 22.1329 56.0506 22.2723V23.8724C56.0506 24.0119 55.9328 24.1242 55.7866 24.1242Z" fill="#3949AB"/>
</g>
<path d="M54.062 23.8294C54.062 23.5784 54.2753 23.375 54.5386 23.375H56.5197C56.7829 23.375 56.9962 23.5784 56.9962 23.8294V26.134H54.062V23.8294Z" fill="url(#paint4_linear_11055_38059)"/>
<g style="mix-blend-mode:multiply" opacity="0.47">
<path d="M56.4197 23.8294C56.4197 23.5784 56.2063 23.375 55.9431 23.375H56.5203C56.7836 23.375 56.9969 23.5784 56.9969 23.8294V26.134H56.4197V23.8294Z" fill="#3949AB"/>
</g>
<path d="M55.2198 26.832H54.6838V27.343H55.2198V26.832Z" fill="url(#paint5_linear_11055_38059)"/>
<path d="M56.3741 26.832H55.8381V27.343H56.3741V26.832Z" fill="url(#paint6_linear_11055_38059)"/>
<path d="M46.5186 8.7318C46.5186 8.325 46.3457 7.95675 46.0661 7.69019C45.7865 7.42364 45.4003 7.25879 44.9736 7.25879H28.4943C27.641 7.25879 26.9485 7.9182 26.9485 8.73262V26.8287H46.5186V8.7318Z" fill="url(#paint7_linear_11055_38059)"/>
<path d="M26.9485 26.8242V32.8253C26.9485 33.6389 27.6401 34.2992 28.4943 34.2992H44.9736C45.827 34.2992 46.5194 33.6398 46.5194 32.8253V26.8242H26.9493H26.9485Z" fill="url(#paint8_linear_11055_38059)"/>
<path d="M45.3221 9.20649C45.3221 8.98259 45.2266 8.77919 45.0726 8.63238C44.9187 8.48557 44.7053 8.39453 44.4705 8.39453H28.9959C28.5254 8.39453 28.1443 8.75786 28.1443 9.20649V26.8236H45.3221V9.20649Z" fill="url(#paint9_linear_11055_38059)"/>
<path d="M28.145 26.8223V32.3444C28.145 32.793 28.5261 33.1564 28.9966 33.1564H44.4712C44.9418 33.1564 45.3228 32.793 45.3228 32.3444V26.8223H28.145Z" fill="url(#paint10_linear_11055_38059)"/>
<path d="M30.2389 31.9471C30.4527 31.9471 30.626 31.7819 30.626 31.5781C30.626 31.3742 30.4527 31.209 30.2389 31.209C30.0251 31.209 29.8518 31.3742 29.8518 31.5781C29.8518 31.7819 30.0251 31.9471 30.2389 31.9471Z" fill="white"/>
<path d="M32.1745 31.9471C32.3882 31.9471 32.5616 31.7819 32.5616 31.5781C32.5616 31.3742 32.3882 31.209 32.1745 31.209C31.9607 31.209 31.7874 31.3742 31.7874 31.5781C31.7874 31.7819 31.9607 31.9471 32.1745 31.9471Z" fill="white"/>
<path d="M34.11 31.9471C34.3238 31.9471 34.4971 31.7819 34.4971 31.5781C34.4971 31.3742 34.3238 31.209 34.11 31.209C33.8962 31.209 33.7229 31.3742 33.7229 31.5781C33.7229 31.7819 33.8962 31.9471 34.11 31.9471Z" fill="white"/>
<g style="mix-blend-mode:multiply" opacity="0.41">
<path d="M36.934 14.0625H36.5908V20.9699H36.934V14.0625Z" fill="#5A5C65"/>
<path d="M36.8832 18.5408L36.6406 18.3095L37.8105 17.1941V15.9893H38.1538V17.3294L36.8832 18.5408Z" fill="#5A5C65"/>
<path d="M36.6408 19.7566L35.3711 18.5452V17.2051H35.7143V18.4099L36.8834 19.5253L36.6408 19.7566Z" fill="#5A5C65"/>
<path d="M38.497 15.082H37.4673V16.0638H38.497V15.082Z" fill="#5A5C65"/>
<path d="M35.5423 16.2812C35.2266 16.2812 34.9702 16.5257 34.9702 16.8267C34.9702 17.1277 35.2266 17.3721 35.5423 17.3721C35.858 17.3721 36.1143 17.1277 36.1143 16.8267C36.1143 16.5257 35.858 16.2812 35.5423 16.2812Z" fill="#5A5C65"/>
<path d="M36.762 20.6074C36.3431 20.6074 36.0042 20.9306 36.0042 21.33C36.0042 21.7294 36.3431 22.0525 36.762 22.0525C37.1809 22.0525 37.5199 21.7294 37.5199 21.33C37.5199 20.9306 37.1809 20.6074 36.762 20.6074Z" fill="#5A5C65"/>
<path d="M36.0764 14.3005L36.762 13.167L37.4485 14.3005H36.0764Z" fill="#5A5C65"/>
</g>
<path d="M50.8232 21.3798C51.0848 21.4733 51.2912 21.6827 51.3789 21.947C51.4667 21.6827 51.6723 21.4725 51.9347 21.3798C51.6731 21.2862 51.4667 21.0768 51.3789 20.8125C51.2912 21.0768 51.0856 21.2871 50.8232 21.3798Z" fill="white"/>
<path d="M22.1702 23.3358C22.4317 23.4294 22.6381 23.6388 22.7259 23.9031C22.8136 23.6388 23.0192 23.4294 23.2816 23.3358C23.0201 23.2423 22.8136 23.0329 22.7259 22.7686C22.6381 23.0329 22.4325 23.2431 22.1702 23.3358Z" fill="white"/>
<path d="M40.48 13.067C40.7234 13.1536 40.9153 13.3485 40.9961 13.5939C41.077 13.3485 41.2688 13.1536 41.5122 13.067C41.2688 12.9803 41.077 12.7855 40.9961 12.54C40.9153 12.7855 40.7234 12.9803 40.48 13.067Z" fill="white"/>
<path d="M24.3147 17.9895C24.5392 18.0693 24.7156 18.2496 24.7904 18.4761C24.8652 18.2496 25.0416 18.0693 25.2661 17.9895C25.0416 17.9097 24.8652 17.7295 24.7904 17.5029C24.7156 17.7295 24.5392 17.9097 24.3147 17.9895Z" fill="white"/>
<path d="M52.3909 18.7432C52.8907 18.9208 53.2846 19.3225 53.4515 19.8262C53.6184 19.3225 54.0115 18.9208 54.5122 18.7432C54.0124 18.5656 53.6184 18.1639 53.4515 17.6602C53.2846 18.1639 52.8915 18.5656 52.3909 18.7432Z" fill="white"/>
<path d="M19.3452 21.2891C19.845 21.4667 20.239 21.8684 20.4059 22.3721C20.5728 21.8684 20.9659 21.4667 21.4665 21.2891C20.9667 21.1114 20.5728 20.7098 20.4059 20.2061C20.239 20.7098 19.8459 21.1114 19.3452 21.2891Z" fill="white"/>
<path d="M42.3958 10.4968C42.8216 10.6487 43.1571 10.9902 43.299 11.4193C43.4409 10.9902 43.7764 10.6478 44.2022 10.4968C43.7764 10.3457 43.4409 10.0033 43.299 9.57422C43.1571 10.0033 42.8216 10.3457 42.3958 10.4968Z" fill="white"/>
</g>
<defs>
<linearGradient id="paint0_linear_11055_38059" x1="36.5571" y1="36.8677" x2="37.5997" y2="36.8677" gradientUnits="userSpaceOnUse">
<stop stop-color="#5C6BC0"/>
<stop offset="1" stop-color="#3949AB"/>
</linearGradient>
<linearGradient id="paint1_linear_11055_38059" x1="35.6111" y1="35.1017" x2="38.5453" y2="35.1017" gradientUnits="userSpaceOnUse">
<stop stop-color="#5C6BC0"/>
<stop offset="1" stop-color="#3949AB"/>
</linearGradient>
<linearGradient id="paint2_linear_11055_38059" x1="54.3271" y1="26.8224" x2="56.7315" y2="26.8224" gradientUnits="userSpaceOnUse">
<stop stop-color="#E8EAF6"/>
<stop offset="1" stop-color="#C5CAE9"/>
</linearGradient>
<linearGradient id="paint3_linear_11055_38059" x1="55.0081" y1="23.072" x2="56.0506" y2="23.072" gradientUnits="userSpaceOnUse">
<stop stop-color="#5C6BC0"/>
<stop offset="1" stop-color="#3949AB"/>
</linearGradient>
<linearGradient id="paint4_linear_11055_38059" x1="54.0629" y1="24.7537" x2="56.9971" y2="24.7537" gradientUnits="userSpaceOnUse">
<stop stop-color="#5C6BC0"/>
<stop offset="1" stop-color="#3949AB"/>
</linearGradient>
<linearGradient id="paint5_linear_11055_38059" x1="54.6838" y1="27.0871" x2="55.2198" y2="27.0871" gradientUnits="userSpaceOnUse">
<stop stop-color="#5C6BC0"/>
<stop offset="1" stop-color="#3949AB"/>
</linearGradient>
<linearGradient id="paint6_linear_11055_38059" x1="55.8381" y1="27.0871" x2="56.3749" y2="27.0871" gradientUnits="userSpaceOnUse">
<stop stop-color="#5C6BC0"/>
<stop offset="1" stop-color="#3949AB"/>
</linearGradient>
<linearGradient id="paint7_linear_11055_38059" x1="36.7335" y1="46.456" x2="36.7335" y2="7.25797" gradientUnits="userSpaceOnUse">
<stop stop-color="#CCD1EC"/>
<stop offset="1" stop-color="white"/>
</linearGradient>
<linearGradient id="paint8_linear_11055_38059" x1="8.55861" y1="3.26751" x2="74.7435" y2="72.6852" gradientUnits="userSpaceOnUse">
<stop offset="1" stop-color="#682EB0"/>
</linearGradient>
<linearGradient id="paint9_linear_11055_38059" x1="36.7336" y1="33.1577" x2="36.7336" y2="8.15504" gradientUnits="userSpaceOnUse">
<stop stop-color="#E8EAF6"/>
<stop offset="1" stop-color="#E8EAF6"/>
</linearGradient>
<linearGradient id="paint10_linear_11055_38059" x1="30.9029" y1="24.1928" x2="74.7399" y2="70.1711" gradientUnits="userSpaceOnUse">
<stop offset="1" stop-color="#CCC7D3"/>
</linearGradient>
</defs>
</svg>
